HIERARCHY
ROOT hip
{
	OFFSET 0.000000 0.000000 0.000000 
	CHANNELS 6 Xposition Yposition Zposition Zrotation Xrotation Yrotation
	JOINT abdomen
	{
		OFFSET 0.000000 3.402643 0.000000 
		CHANNELS 3 Zrotation Xrotation Yrotation
		JOINT chest
		{
			OFFSET 0.000000 8.438565 -0.680529 
			CHANNELS 3 Zrotation Xrotation Yrotation
			JOINT neck
			{
				OFFSET 0.000000 10.207942 -0.272212 
				CHANNELS 3 Zrotation Xrotation Yrotation
				JOINT head
				{
					OFFSET 0.000000 3.130431 0.000000 
					CHANNELS 3 Zrotation Xrotation Yrotation
					End Site
					{
						OFFSET 0.000000 3.130435 0.000000 
					}
				}
			}
			JOINT lCollar
			{
				OFFSET 3.470700 6.669187 -0.816635 
				CHANNELS 3 Zrotation Xrotation Yrotation
				JOINT lShldr
				{
					OFFSET 3.198488 0.000000 0.000000 
					CHANNELS 3 Zrotation Xrotation Yrotation
					JOINT lForeArm
					{
						OFFSET 10.139888 0.000000 0.000000 
						CHANNELS 3 Zrotation Xrotation Yrotation
						JOINT lHand
						{
							OFFSET 8.370511 0.000000 0.000000 
							CHANNELS 3 Zrotation Xrotation Yrotation
							End Site
							{
								OFFSET 4.083176 0.000000 0.000000 
							}
						}
					}
				}
			}
			JOINT rCollar
			{
				OFFSET -3.470700 6.669187 -0.816635 
				CHANNELS 3 Zrotation Xrotation Yrotation
				JOINT rShldr
				{
					OFFSET -3.198488 0.000000 0.000000 
					CHANNELS 3 Zrotation Xrotation Yrotation
					JOINT rForeArm
					{
						OFFSET -10.139888 0.000000 0.000000 
						CHANNELS 3 Zrotation Xrotation Yrotation
						JOINT rHand
						{
							OFFSET -8.370511 0.000000 0.000000 
							CHANNELS 3 Zrotation Xrotation Yrotation
							End Site
							{
								OFFSET -4.083176 0.000000 0.000000 
							}
						}
					}
				}
			}
		}
	}
	JOINT lThigh
	{
		OFFSET 5.308129 -1.633274 1.361059 
		CHANNELS 3 Zrotation Xrotation Yrotation
		JOINT lShin
		{
			OFFSET -2.041588 -20.007561 0.000000 
			CHANNELS 3 Zrotation Xrotation Yrotation
			JOINT lFoot
			{
				OFFSET 0.000000 -19.190928 -1.224953 
				CHANNELS 3 Zrotation Xrotation Yrotation
				End Site
				{
					OFFSET 0.000000 -2.449906 4.627600 
				}
			}
		}
	}
	JOINT rThigh
	{
		OFFSET -5.308129 -1.633274 1.361059 
		CHANNELS 3 Zrotation Xrotation Yrotation
		JOINT rShin
		{
			OFFSET 2.041588 -20.007561 0.000000 
			CHANNELS 3 Zrotation Xrotation Yrotation
			JOINT rFoot
			{
				OFFSET 0.000000 -19.190928 -1.224953 
				CHANNELS 3 Zrotation Xrotation Yrotation
				End Site
				{
					OFFSET 0.000000 -2.449906 4.627600 
				}
			}
		}
	}
}
MOTION
Frames: 8
Frame Time: 0.016667
2.145650 42.241806 0.243445 -5.703120 13.701100 -3.691680 -2.843420 15.864700 0.796047 -0.533936 -13.027300 0.119242 -8.197240 -17.770700 0.763397 1.605840 -0.476293 0.953155 -1.998780 -0.069785 1.998780 -57.510300 -42.375301 49.157001 0.768382 -1.122340 -16.455700 0.016965 59.313000 -0.079280 1.998780 -0.069785 -1.998780 53.223701 -45.492001 -25.988501 1.814880 1.509460 81.989700 0.061150 -34.110802 -0.209799 3.209270 -30.290100 -1.546050 2.245360 32.563202 1.541450 -0.343918 -11.894700 0.232756 -1.849240 -31.062401 8.119099 170.584000 77.269096 -175.345993 -1.460670 -15.894800 -1.293480 
2.170250 42.542805 0.375472 -6.992180 15.322200 -2.471630 -3.048040 15.978400 1.121730 0.270037 -13.338800 0.597453 -9.451810 -17.485500 0.910380 1.206600 -0.369008 1.108090 -1.998780 -0.069785 1.998780 -25.113400 -53.017300 74.561096 0.670636 -1.081650 -12.455000 0.501105 80.806198 -0.587004 1.998780 -0.069785 -1.998780 51.437199 -46.263000 -27.731400 1.803970 1.468030 80.770103 0.057993 -35.556801 -0.214558 3.983390 -31.242500 -3.626800 2.201960 31.320000 1.544400 -0.109969 -11.038800 1.164970 -2.318710 -24.987400 7.448898 133.772995 89.006500 -138.248001 -2.885510 -16.137699 -5.771810 
2.178790 42.521103 0.458813 -8.701170 17.041000 -1.075470 -3.589300 16.172899 1.506900 0.993222 -13.776500 0.958677 -10.429500 -17.200701 1.237980 0.826635 -0.174008 1.310500 -1.998780 -0.069785 1.998780 6.772220 -51.595501 100.075996 0.643949 -1.071900 -11.381700 178.483994 85.060997 -178.585007 1.998780 -0.069785 -1.998780 49.271198 -46.599400 -29.906799 1.796430 1.441310 79.979698 0.055172 -36.776798 -0.218720 4.748320 -33.380501 -6.454010 2.179170 32.127399 1.598350 0.159107 -11.387400 2.241960 -2.058270 -19.401400 7.316298 -2.754650 76.631104 -1.515000 -4.757300 -16.358999 -11.357900 
2.152250 42.192604 0.514020 -10.048800 18.535200 -0.088685 -4.090290 16.327600 1.790550 1.426200 -14.361200 1.162540 -11.060600 -17.500000 1.866980 0.456649 -0.252607 1.668460 -1.998780 -0.069785 1.998780 19.550100 -46.603199 108.956001 0.647841 -1.073280 -11.537800 178.735001 83.889397 -178.837006 1.998780 -0.069785 -1.998780 47.243099 -46.286201 -32.212700 1.797100 1.443620 80.048103 0.053615 -37.421799 -0.220977 5.186871 -36.078800 -8.428920 2.180950 34.679001 1.663180 0.284850 -13.265900 2.686700 -1.920380 -14.657497 8.050698 -4.042490 62.020000 -0.123810 -6.057050 -18.130699 -14.782900 
2.036070 41.778004 0.461177 -9.990230 19.472601 -0.186604 -4.301460 16.254000 2.069850 1.426140 -14.885200 1.578870 -10.999800 -17.906000 2.491540 0.349716 -0.369962 1.988480 -1.998780 -0.069785 1.998780 28.279600 -42.819698 113.136002 0.655859 -1.076180 -11.859800 178.701996 84.074898 -178.804001 1.998780 -0.069785 -1.998780 46.093800 -46.654598 -34.333302 1.805150 1.472330 80.896896 0.052725 -37.782799 -0.222260 5.024266 -38.060902 -8.704960 2.140790 36.664101 1.756260 0.231699 -14.593500 2.310960 -2.860441 -10.968368 9.676399 -4.343680 47.947800 0.205148 -4.235850 -18.545099 -10.749600 
1.882670 41.667103 0.394321 -8.144520 19.160101 -1.983070 -3.781580 15.318900 2.016020 0.896457 -15.595000 1.878840 -10.954300 -18.877600 3.273230 0.117396 -1.083270 2.463850 -1.998780 -0.069785 1.998780 32.113098 -40.341702 113.485001 0.662891 -1.078760 -12.142800 178.723007 83.957703 -178.824997 1.998780 -0.069785 -1.998780 46.146099 -45.984699 -35.791801 1.817290 1.519110 82.272697 0.054421 -37.089802 -0.219810 4.335840 -37.653099 -6.817650 2.109790 36.626900 1.778960 0.122545 -14.662500 1.733740 -4.910861 -8.043418 11.609798 -4.339430 36.429199 0.204636 -1.630740 -18.955000 -4.607440 
1.659520 41.849304 0.229813 -5.908210 18.056700 -4.551520 -3.156960 14.853100 1.972420 0.272845 -15.424100 2.270340 -10.901100 -19.230801 4.031940 0.000853 -1.181160 2.852900 -1.998780 -0.069785 1.998780 30.645700 -42.955799 110.898003 0.666041 -1.079930 -12.269600 178.330994 85.578499 -178.432007 1.998780 -0.069785 -1.998780 48.666599 -46.249199 -34.107498 1.825910 1.555470 83.336304 0.057753 -35.663799 -0.214917 3.625550 -35.705601 -4.991410 2.116360 35.037899 1.749530 0.251306 -14.281900 1.846430 -6.325153 -7.696498 11.802599 -4.307910 30.563999 0.178907 0.076728 -18.347601 -0.351644 
1.406720 42.203804 -0.014326 -6.337890 17.705099 -6.719320 -3.238370 14.900400 2.167000 0.312391 -15.106000 2.658520 -11.273200 -18.410700 4.999580 -0.175626 -0.576071 3.285080 -1.998780 -0.069785 1.998780 15.582100 -49.465000 98.931801 0.681740 -1.085870 -12.903800 0.808343 83.608597 -0.897230 1.998780 -0.069785 -1.998780 53.443802 -46.279099 -29.104799 1.825980 1.555800 83.346100 0.063443 -32.997799 -0.206254 5.596115 -34.472500 -4.187850 2.182970 33.334499 1.629620 0.834599 -13.827200 3.266870 -4.138180 -9.957997 10.140099 -3.958630 28.872801 -0.053392 0.006828 -18.143000 -0.277308 
